# xmcd
#
# Track frame offsets:
#	150
#	10925
#	25689
#
# Disc length: 500 seconds
#
# Revision: 0
# Processed by: cddbd v1.5.2PL0 Copyright (c) Steve Scherf et al.
# Submitted via: audiograbber 1.83.01
#
DISCID=1501f203
DTITLE=Gerbrand - Puur Natuur
DYEAR=1900
DGENRE=Hollands
TTITLE0=Gerbrand - De Noordzee
TTITLE1=Gerbrand - Het naaktstrand
TTITLE2=Gerbrand - Rietzeilen
EXTD=
EXTT0=
EXTT1=
EXTT2=
PLAYORDER=
